<svg viewBox="0 0 70 70" fill="currentColor" xmlns="http://www.w3.org/2000/svg">
<path d="M15.8066 23.0188H1.17969V69.663H15.8066V23.0188Z" fill="currentColor"/>
<path d="M55.3732 22.0077C54.834 21.9403 54.2611 21.9066 53.6881 21.8729C45.4984 21.5359 40.8812 26.389 39.2635 28.4786C38.8254 29.0515 38.6231 29.3886 38.6231 29.3886V23.1536H24.6366V69.7978H38.6231H39.2635C39.2635 65.0458 39.2635 60.3274 39.2635 55.5754C39.2635 53.014 39.2635 50.4526 39.2635 47.8912C39.2635 44.7232 39.0276 41.3529 40.6116 38.4545C41.9597 36.0279 44.3862 34.8147 47.1161 34.8147C55.2047 34.8147 55.3732 42.1281 55.3732 42.8021C55.3732 42.8358 55.3732 42.8695 55.3732 42.8695V70H70.0001V39.5667C70.0001 29.1526 64.7088 23.0188 55.3732 22.0077Z" fill="currentColor"/>
<path d="M8.49301 16.986C13.1836 16.986 16.9861 13.1836 16.9861 8.49303C16.9861 3.80246 13.1836 0 8.49301 0C3.80244 0 0 3.80246 0 8.49303C0 13.1836 3.80244 16.986 8.49301 16.986Z" fill="currentColor"/>
</svg>
