<svg viewBox="0 0 55 70" fill="currentColor" xmlns="http://www.w3.org/2000/svg">
<path fill-rule="evenodd" clip-rule="evenodd" d="M22.8325 47.8405C25.0485 47.912 27.05 50.8427 32.9115 50.8427C43.9198 50.9142 51.4969 42.4793 53.8559 31.3995C62.0763 -6.98646 6.10566 -10.0602 0.387077 21.535C-0.971087 28.9691 1.24486 37.547 7.03493 40.3348C11.4668 42.4793 11.7528 36.3318 10.3946 33.687C4.39009 21.9639 11.6098 11.3845 21.0455 8.38224C29.9093 5.52295 36.1997 7.88186 40.989 12.8141C47.1365 19.1761 44.3487 36.4748 37.0575 41.9789C34.4841 43.909 29.7663 44.3378 27.3359 42.0504C22.3321 37.4041 30.0522 27.5395 28.9085 20.3198C27.7648 13.1716 16.4706 14.2438 15.8987 24.7517C15.6128 30.1129 17.1854 31.6855 15.9702 37.0466C14.0402 45.6245 8.17865 63.1377 12.3246 70C18.4006 67.1407 21.4029 49.985 22.8325 47.8405Z" fill="currentColor"/>
</svg>
